<mxfile host="app.diagrams.net" agent="Mozilla/5.0 (Windows NT 10.0; Win64; x64) AppleWebKit/537.36 (KHTML, like Gecko) Chrome/130.0.0.0 Safari/537.36" version="24.8.3" pages="2">
  <diagram name="Page-1" id="KEtBftdumcoz59UXeyc4">
    <mxGraphModel dx="2284" dy="833" grid="1" gridSize="10" guides="1" tooltips="1" connect="1" arrows="1" fold="1" page="1" pageScale="1" pageWidth="850" pageHeight="1100" math="0" shadow="0">
      <root>
        <mxCell id="0" />
        <mxCell id="1" parent="0" />
        <mxCell id="wzudloVcCiuj6IrgVFKm-1" value="" style="group" vertex="1" connectable="0" parent="1">
          <mxGeometry x="240" y="260" width="120" height="600" as="geometry" />
        </mxCell>
        <mxCell id="wzudloVcCiuj6IrgVFKm-2" value="" style="rounded=0;whiteSpace=wrap;html=1;strokeColor=#6c8ebf;fillColor=#dae8fc;" vertex="1" parent="wzudloVcCiuj6IrgVFKm-1">
          <mxGeometry y="20" width="120" height="40" as="geometry" />
        </mxCell>
        <mxCell id="wzudloVcCiuj6IrgVFKm-3" value="" style="rounded=0;whiteSpace=wrap;html=1;fillColor=none;strokeWidth=2;" vertex="1" parent="wzudloVcCiuj6IrgVFKm-1">
          <mxGeometry y="21" width="120" height="600" as="geometry" />
        </mxCell>
        <mxCell id="wzudloVcCiuj6IrgVFKm-4" value="&lt;b&gt;Gateway&lt;/b&gt;" style="text;html=1;align=center;verticalAlign=middle;whiteSpace=wrap;rounded=0;" vertex="1" parent="wzudloVcCiuj6IrgVFKm-1">
          <mxGeometry x="30" y="34.5" width="60" height="17.5" as="geometry" />
        </mxCell>
        <mxCell id="wzudloVcCiuj6IrgVFKm-12" value="&lt;b&gt;acc-session-id&lt;/b&gt;" style="text;html=1;align=center;verticalAlign=middle;whiteSpace=wrap;rounded=0;" vertex="1" parent="wzudloVcCiuj6IrgVFKm-1">
          <mxGeometry x="-105" y="294" width="110" height="30" as="geometry" />
        </mxCell>
        <mxCell id="wzudloVcCiuj6IrgVFKm-14" value="" style="endArrow=classic;html=1;rounded=0;entryX=1.013;entryY=0.084;entryDx=0;entryDy=0;entryPerimeter=0;dashed=1;" edge="1" parent="wzudloVcCiuj6IrgVFKm-1">
          <mxGeometry width="50" height="50" relative="1" as="geometry">
            <mxPoint y="300" as="sourcePoint" />
            <mxPoint x="-117" y="300" as="targetPoint" />
          </mxGeometry>
        </mxCell>
        <mxCell id="ivdqDtTuWTQu9ybZsBom-7" value="" style="rounded=0;whiteSpace=wrap;html=1;strokeColor=#6c8ebf;fillColor=#dae8fc;" vertex="1" parent="1">
          <mxGeometry x="-35" y="280" width="160" height="80" as="geometry" />
        </mxCell>
        <mxCell id="ivdqDtTuWTQu9ybZsBom-44" value="" style="rounded=0;whiteSpace=wrap;html=1;strokeColor=#6c8ebf;fillColor=#dae8fc;movable=1;resizable=1;rotatable=1;deletable=1;editable=1;locked=0;connectable=1;" vertex="1" parent="1">
          <mxGeometry x="23" y="430" width="100" height="40" as="geometry" />
        </mxCell>
        <mxCell id="ivdqDtTuWTQu9ybZsBom-45" value="" style="rounded=0;whiteSpace=wrap;html=1;fillColor=none;strokeWidth=2;movable=1;resizable=1;rotatable=1;deletable=1;editable=1;locked=0;connectable=1;" vertex="1" parent="1">
          <mxGeometry x="23" y="430" width="100" height="450" as="geometry" />
        </mxCell>
        <mxCell id="ivdqDtTuWTQu9ybZsBom-2" value="" style="rounded=0;whiteSpace=wrap;html=1;fillColor=none;strokeWidth=2;" vertex="1" parent="1">
          <mxGeometry x="-35" y="280" width="160" height="600" as="geometry" />
        </mxCell>
        <mxCell id="ivdqDtTuWTQu9ybZsBom-72" value="" style="rounded=0;whiteSpace=wrap;html=1;strokeColor=#6c8ebf;fillColor=#dae8fc;" vertex="1" parent="1">
          <mxGeometry x="33" y="638" width="90" height="40" as="geometry" />
        </mxCell>
        <mxCell id="ivdqDtTuWTQu9ybZsBom-17" value="" style="rounded=0;whiteSpace=wrap;html=1;strokeColor=#6c8ebf;fillColor=#dae8fc;" vertex="1" parent="1">
          <mxGeometry x="880" y="560" width="120" height="40" as="geometry" />
        </mxCell>
        <mxCell id="ivdqDtTuWTQu9ybZsBom-15" value="" style="rounded=0;whiteSpace=wrap;html=1;strokeColor=#6c8ebf;fillColor=#dae8fc;" vertex="1" parent="1">
          <mxGeometry x="560" y="432" width="160" height="40" as="geometry" />
        </mxCell>
        <mxCell id="ivdqDtTuWTQu9ybZsBom-5" value="" style="rounded=0;whiteSpace=wrap;html=1;fillColor=none;strokeWidth=2;" vertex="1" parent="1">
          <mxGeometry x="880" y="560" width="120" height="160" as="geometry" />
        </mxCell>
        <mxCell id="ivdqDtTuWTQu9ybZsBom-13" value="" style="group" vertex="1" connectable="0" parent="1">
          <mxGeometry x="880" y="280" width="120" height="240" as="geometry" />
        </mxCell>
        <mxCell id="ivdqDtTuWTQu9ybZsBom-16" value="" style="rounded=0;whiteSpace=wrap;html=1;strokeColor=#6c8ebf;fillColor=#dae8fc;" vertex="1" parent="ivdqDtTuWTQu9ybZsBom-13">
          <mxGeometry width="120" height="40" as="geometry" />
        </mxCell>
        <mxCell id="ivdqDtTuWTQu9ybZsBom-4" value="" style="rounded=0;whiteSpace=wrap;html=1;fillColor=none;strokeWidth=2;" vertex="1" parent="ivdqDtTuWTQu9ybZsBom-13">
          <mxGeometry width="120" height="240" as="geometry" />
        </mxCell>
        <mxCell id="ivdqDtTuWTQu9ybZsBom-14" value="&lt;b&gt;SAM Auth&lt;/b&gt;" style="text;html=1;align=center;verticalAlign=middle;whiteSpace=wrap;rounded=0;" vertex="1" parent="ivdqDtTuWTQu9ybZsBom-13">
          <mxGeometry x="30" y="5" width="60" height="30" as="geometry" />
        </mxCell>
        <mxCell id="ivdqDtTuWTQu9ybZsBom-48" style="edgeStyle=orthogonalEdgeStyle;rounded=0;orthogonalLoop=1;jettySize=auto;html=1;exitX=1;exitY=0.75;exitDx=0;exitDy=0;" edge="1" parent="ivdqDtTuWTQu9ybZsBom-13">
          <mxGeometry relative="1" as="geometry">
            <mxPoint x="-160" y="175" as="sourcePoint" />
            <mxPoint y="175" as="targetPoint" />
          </mxGeometry>
        </mxCell>
        <mxCell id="ivdqDtTuWTQu9ybZsBom-49" value="" style="endArrow=classic;html=1;rounded=0;entryX=1.013;entryY=0.084;entryDx=0;entryDy=0;entryPerimeter=0;dashed=1;" edge="1" parent="ivdqDtTuWTQu9ybZsBom-13">
          <mxGeometry width="50" height="50" relative="1" as="geometry">
            <mxPoint y="195" as="sourcePoint" />
            <mxPoint x="-158" y="195" as="targetPoint" />
          </mxGeometry>
        </mxCell>
        <mxCell id="ivdqDtTuWTQu9ybZsBom-51" value="&lt;b&gt;Tokens&lt;/b&gt;" style="text;html=1;align=center;verticalAlign=middle;whiteSpace=wrap;rounded=0;" vertex="1" parent="ivdqDtTuWTQu9ybZsBom-13">
          <mxGeometry x="-170" y="195" width="100" height="30" as="geometry" />
        </mxCell>
        <mxCell id="ivdqDtTuWTQu9ybZsBom-19" value="" style="endArrow=classic;html=1;rounded=0;exitX=0.008;exitY=0.201;exitDx=0;exitDy=0;exitPerimeter=0;entryX=1.013;entryY=0.084;entryDx=0;entryDy=0;entryPerimeter=0;dashed=1;" edge="1" parent="1">
          <mxGeometry width="50" height="50" relative="1" as="geometry">
            <mxPoint x="880" y="334" as="sourcePoint" />
            <mxPoint x="361.11999999999995" y="336.1600000000001" as="targetPoint" />
          </mxGeometry>
        </mxCell>
        <mxCell id="ivdqDtTuWTQu9ybZsBom-21" value="&lt;b&gt;Login: Authorization Code Flow Grant&lt;/b&gt;" style="text;html=1;align=center;verticalAlign=middle;whiteSpace=wrap;rounded=0;" vertex="1" parent="1">
          <mxGeometry x="620" y="285" width="270" height="30" as="geometry" />
        </mxCell>
        <mxCell id="ivdqDtTuWTQu9ybZsBom-22" value="&lt;b&gt;Token&lt;/b&gt;" style="text;html=1;align=center;verticalAlign=middle;whiteSpace=wrap;rounded=0;" vertex="1" parent="1">
          <mxGeometry x="375" y="340" width="60" height="30" as="geometry" />
        </mxCell>
        <mxCell id="ivdqDtTuWTQu9ybZsBom-23" value="&lt;b&gt;XR ACC Provider&lt;/b&gt;" style="text;html=1;align=center;verticalAlign=middle;whiteSpace=wrap;rounded=0;" vertex="1" parent="1">
          <mxGeometry x="570" y="437" width="140" height="30" as="geometry" />
        </mxCell>
        <mxCell id="ivdqDtTuWTQu9ybZsBom-26" value="&lt;b&gt;Init ACC Session&lt;/b&gt;" style="text;html=1;align=center;verticalAlign=middle;whiteSpace=wrap;rounded=0;" vertex="1" parent="1">
          <mxGeometry x="350" y="492" width="210" height="30" as="geometry" />
        </mxCell>
        <mxCell id="ivdqDtTuWTQu9ybZsBom-27" value="&lt;b&gt;acc-session-id&lt;/b&gt;" style="text;html=1;align=center;verticalAlign=middle;whiteSpace=wrap;rounded=0;" vertex="1" parent="1">
          <mxGeometry x="375" y="535" width="110" height="30" as="geometry" />
        </mxCell>
        <mxCell id="ivdqDtTuWTQu9ybZsBom-28" style="edgeStyle=orthogonalEdgeStyle;rounded=0;orthogonalLoop=1;jettySize=auto;html=1;exitX=1.001;exitY=0.543;exitDx=0;exitDy=0;entryX=0.002;entryY=0.329;entryDx=0;entryDy=0;entryPerimeter=0;exitPerimeter=0;" edge="1" parent="1" source="ivdqDtTuWTQu9ybZsBom-2">
          <mxGeometry relative="1" as="geometry">
            <mxPoint x="360" y="605" as="sourcePoint" />
            <mxPoint x="560.3199999999997" y="604.76" as="targetPoint" />
          </mxGeometry>
        </mxCell>
        <mxCell id="ivdqDtTuWTQu9ybZsBom-29" value="" style="endArrow=classic;html=1;rounded=0;entryX=1.014;entryY=0.579;entryDx=0;entryDy=0;entryPerimeter=0;dashed=1;" edge="1" parent="1" target="ivdqDtTuWTQu9ybZsBom-2">
          <mxGeometry width="50" height="50" relative="1" as="geometry">
            <mxPoint x="560" y="623" as="sourcePoint" />
            <mxPoint x="362" y="625" as="targetPoint" />
          </mxGeometry>
        </mxCell>
        <mxCell id="ivdqDtTuWTQu9ybZsBom-30" value="&lt;b&gt;Fetch ACC Bundle&lt;/b&gt;" style="text;html=1;align=center;verticalAlign=middle;whiteSpace=wrap;rounded=0;" vertex="1" parent="1">
          <mxGeometry x="390" y="580" width="180" height="30" as="geometry" />
        </mxCell>
        <mxCell id="ivdqDtTuWTQu9ybZsBom-31" value="&lt;b&gt;JS Bundle&lt;/b&gt;" style="text;html=1;align=center;verticalAlign=middle;whiteSpace=wrap;rounded=0;" vertex="1" parent="1">
          <mxGeometry x="110" y="625" width="100" height="30" as="geometry" />
        </mxCell>
        <mxCell id="ivdqDtTuWTQu9ybZsBom-34" style="edgeStyle=orthogonalEdgeStyle;rounded=0;orthogonalLoop=1;jettySize=auto;html=1;exitX=1;exitY=0.75;exitDx=0;exitDy=0;entryX=0.002;entryY=0.329;entryDx=0;entryDy=0;entryPerimeter=0;" edge="1" parent="1">
          <mxGeometry relative="1" as="geometry">
            <mxPoint x="361" y="521" as="sourcePoint" />
            <mxPoint x="561.3199999999997" y="520.76" as="targetPoint" />
          </mxGeometry>
        </mxCell>
        <mxCell id="ivdqDtTuWTQu9ybZsBom-35" value="" style="endArrow=classic;html=1;rounded=0;entryX=1.013;entryY=0.084;entryDx=0;entryDy=0;entryPerimeter=0;dashed=1;" edge="1" parent="1">
          <mxGeometry width="50" height="50" relative="1" as="geometry">
            <mxPoint x="561" y="539" as="sourcePoint" />
            <mxPoint x="363" y="541" as="targetPoint" />
          </mxGeometry>
        </mxCell>
        <mxCell id="ivdqDtTuWTQu9ybZsBom-42" style="edgeStyle=orthogonalEdgeStyle;rounded=0;orthogonalLoop=1;jettySize=auto;html=1;exitX=1;exitY=0.75;exitDx=0;exitDy=0;" edge="1" parent="1">
          <mxGeometry relative="1" as="geometry">
            <mxPoint x="360" y="310.24" as="sourcePoint" />
            <mxPoint x="880" y="310" as="targetPoint" />
          </mxGeometry>
        </mxCell>
        <mxCell id="ivdqDtTuWTQu9ybZsBom-43" value="&lt;b&gt;XRS Service&lt;/b&gt;" style="text;html=1;align=center;verticalAlign=middle;whiteSpace=wrap;rounded=0;" vertex="1" parent="1">
          <mxGeometry x="870" y="565" width="140" height="30" as="geometry" />
        </mxCell>
        <mxCell id="ivdqDtTuWTQu9ybZsBom-46" value="&lt;b&gt;XR Viewer&lt;/b&gt;" style="text;html=1;align=center;verticalAlign=middle;whiteSpace=wrap;rounded=0;movable=1;resizable=1;rotatable=1;deletable=1;editable=1;locked=0;connectable=1;" vertex="1" parent="1">
          <mxGeometry x="40.5" y="435" width="67.5" height="30" as="geometry" />
        </mxCell>
        <mxCell id="ivdqDtTuWTQu9ybZsBom-12" value="&lt;b&gt;Teamcenter X&amp;nbsp;&lt;/b&gt;&lt;b&gt;AW&lt;/b&gt;&lt;div&gt;&lt;b&gt;&lt;br&gt;&lt;/b&gt;&lt;/div&gt;&lt;div&gt;&lt;b&gt;(&lt;/b&gt;&lt;b style=&quot;background-color: initial;&quot;&gt;Web App&lt;/b&gt;&lt;b style=&quot;background-color: initial;&quot;&gt;)&lt;/b&gt;&lt;/div&gt;" style="text;html=1;align=center;verticalAlign=middle;whiteSpace=wrap;rounded=0;" vertex="1" parent="1">
          <mxGeometry x="-40" y="292.5" width="170" height="55" as="geometry" />
        </mxCell>
        <mxCell id="ivdqDtTuWTQu9ybZsBom-3" value="" style="rounded=0;whiteSpace=wrap;html=1;fillColor=none;strokeWidth=2;" vertex="1" parent="1">
          <mxGeometry x="560" y="434" width="160" height="330" as="geometry" />
        </mxCell>
        <mxCell id="ivdqDtTuWTQu9ybZsBom-50" value="&lt;b&gt;Token Exchange Grant&lt;/b&gt;" style="text;html=1;align=center;verticalAlign=middle;whiteSpace=wrap;rounded=0;" vertex="1" parent="1">
          <mxGeometry x="730" y="410" width="140" height="30" as="geometry" />
        </mxCell>
        <mxCell id="ivdqDtTuWTQu9ybZsBom-53" value="" style="rounded=0;whiteSpace=wrap;html=1;strokeColor=#6c8ebf;fillColor=#dae8fc;" vertex="1" parent="1">
          <mxGeometry x="880" y="760" width="120" height="40" as="geometry" />
        </mxCell>
        <mxCell id="ivdqDtTuWTQu9ybZsBom-54" value="" style="rounded=0;whiteSpace=wrap;html=1;fillColor=none;strokeWidth=2;" vertex="1" parent="1">
          <mxGeometry x="880" y="760" width="120" height="120" as="geometry" />
        </mxCell>
        <mxCell id="ivdqDtTuWTQu9ybZsBom-55" value="&lt;b&gt;OV App&lt;/b&gt;" style="text;html=1;align=center;verticalAlign=middle;whiteSpace=wrap;rounded=0;" vertex="1" parent="1">
          <mxGeometry x="870" y="764" width="140" height="30" as="geometry" />
        </mxCell>
        <mxCell id="ivdqDtTuWTQu9ybZsBom-68" value="" style="endArrow=classic;startArrow=classic;html=1;rounded=0;" edge="1" parent="1">
          <mxGeometry width="50" height="50" relative="1" as="geometry">
            <mxPoint x="720" y="620" as="sourcePoint" />
            <mxPoint x="880" y="620" as="targetPoint" />
          </mxGeometry>
        </mxCell>
        <mxCell id="ivdqDtTuWTQu9ybZsBom-69" value="" style="endArrow=classic;startArrow=classic;html=1;rounded=0;entryX=0.5;entryY=1;entryDx=0;entryDy=0;exitX=0.5;exitY=0;exitDx=0;exitDy=0;" edge="1" parent="1" source="ivdqDtTuWTQu9ybZsBom-54" target="ivdqDtTuWTQu9ybZsBom-5">
          <mxGeometry width="50" height="50" relative="1" as="geometry">
            <mxPoint x="730" y="630" as="sourcePoint" />
            <mxPoint x="890" y="630" as="targetPoint" />
          </mxGeometry>
        </mxCell>
        <mxCell id="ivdqDtTuWTQu9ybZsBom-70" value="" style="rounded=0;whiteSpace=wrap;html=1;fillColor=none;strokeWidth=2;" vertex="1" parent="1">
          <mxGeometry x="33" y="638" width="90" height="242" as="geometry" />
        </mxCell>
        <mxCell id="ivdqDtTuWTQu9ybZsBom-79" style="edgeStyle=orthogonalEdgeStyle;rounded=0;orthogonalLoop=1;jettySize=auto;html=1;exitX=1.018;exitY=0.688;exitDx=0;exitDy=0;entryX=0.002;entryY=0.329;entryDx=0;entryDy=0;entryPerimeter=0;exitPerimeter=0;" edge="1" parent="1" source="ivdqDtTuWTQu9ybZsBom-2">
          <mxGeometry relative="1" as="geometry">
            <mxPoint x="361" y="692" as="sourcePoint" />
            <mxPoint x="561.3199999999997" y="691.76" as="targetPoint" />
          </mxGeometry>
        </mxCell>
        <mxCell id="ivdqDtTuWTQu9ybZsBom-80" value="" style="endArrow=classic;html=1;rounded=0;entryX=0.997;entryY=0.728;entryDx=0;entryDy=0;entryPerimeter=0;dashed=1;" edge="1" parent="1" target="ivdqDtTuWTQu9ybZsBom-2">
          <mxGeometry width="50" height="50" relative="1" as="geometry">
            <mxPoint x="561" y="710" as="sourcePoint" />
            <mxPoint x="363" y="712" as="targetPoint" />
          </mxGeometry>
        </mxCell>
        <mxCell id="ivdqDtTuWTQu9ybZsBom-81" value="&lt;b&gt;/acc/orchestrate&lt;/b&gt;" style="text;html=1;align=center;verticalAlign=middle;whiteSpace=wrap;rounded=0;" vertex="1" parent="1">
          <mxGeometry x="376" y="667" width="180" height="30" as="geometry" />
        </mxCell>
        <mxCell id="ivdqDtTuWTQu9ybZsBom-82" value="&lt;b&gt;JSON&lt;/b&gt;" style="text;html=1;align=center;verticalAlign=middle;whiteSpace=wrap;rounded=0;" vertex="1" parent="1">
          <mxGeometry x="100" y="720" width="100" height="30" as="geometry" />
        </mxCell>
        <mxCell id="ivdqDtTuWTQu9ybZsBom-83" value="" style="endArrow=classic;startArrow=classic;html=1;rounded=0;exitX=1.033;exitY=0.669;exitDx=0;exitDy=0;exitPerimeter=0;" edge="1" parent="1" source="ivdqDtTuWTQu9ybZsBom-70">
          <mxGeometry width="50" height="50" relative="1" as="geometry">
            <mxPoint x="360" y="800" as="sourcePoint" />
            <mxPoint x="880" y="800" as="targetPoint" />
          </mxGeometry>
        </mxCell>
        <mxCell id="ivdqDtTuWTQu9ybZsBom-71" value="&lt;b&gt;XR ACC&lt;/b&gt;" style="text;html=1;align=center;verticalAlign=middle;whiteSpace=wrap;rounded=0;" vertex="1" parent="1">
          <mxGeometry x="30" y="630" width="100" height="53" as="geometry" />
        </mxCell>
        <mxCell id="ivdqDtTuWTQu9ybZsBom-86" value="&lt;b&gt;omniverse-webrtc-streaming&lt;/b&gt;" style="text;html=1;align=center;verticalAlign=middle;whiteSpace=wrap;rounded=0;" vertex="1" parent="1">
          <mxGeometry x="420" y="800" width="420" height="30" as="geometry" />
        </mxCell>
        <mxCell id="wzudloVcCiuj6IrgVFKm-9" style="edgeStyle=orthogonalEdgeStyle;rounded=0;orthogonalLoop=1;jettySize=auto;html=1;exitX=1;exitY=0.75;exitDx=0;exitDy=0;entryX=0;entryY=0.048;entryDx=0;entryDy=0;entryPerimeter=0;" edge="1" parent="1" target="wzudloVcCiuj6IrgVFKm-3">
          <mxGeometry relative="1" as="geometry">
            <mxPoint x="123" y="310" as="sourcePoint" />
            <mxPoint x="230" y="310" as="targetPoint" />
          </mxGeometry>
        </mxCell>
        <mxCell id="wzudloVcCiuj6IrgVFKm-10" value="&lt;b&gt;Login&lt;/b&gt;" style="text;html=1;align=center;verticalAlign=middle;resizable=0;points=[];autosize=1;strokeColor=none;fillColor=none;" vertex="1" parent="1">
          <mxGeometry x="150" y="285" width="60" height="30" as="geometry" />
        </mxCell>
        <mxCell id="wzudloVcCiuj6IrgVFKm-11" value="&lt;b&gt;Init ACC Session&lt;/b&gt;" style="text;html=1;align=center;verticalAlign=middle;whiteSpace=wrap;rounded=0;" vertex="1" parent="1">
          <mxGeometry x="130" y="465" width="110" height="30" as="geometry" />
        </mxCell>
        <mxCell id="wzudloVcCiuj6IrgVFKm-16" value="" style="endArrow=classic;html=1;rounded=0;exitX=1.018;exitY=0.358;exitDx=0;exitDy=0;exitPerimeter=0;entryX=0;entryY=0.356;entryDx=0;entryDy=0;entryPerimeter=0;" edge="1" parent="1" source="ivdqDtTuWTQu9ybZsBom-2" target="wzudloVcCiuj6IrgVFKm-3">
          <mxGeometry width="50" height="50" relative="1" as="geometry">
            <mxPoint x="330" y="590" as="sourcePoint" />
            <mxPoint x="380" y="540" as="targetPoint" />
          </mxGeometry>
        </mxCell>
      </root>
    </mxGraphModel>
  </diagram>
  <diagram id="wihr1STHoBBnjM8HW1Tw" name="Page-2">
    <mxGraphModel dx="1434" dy="833" grid="1" gridSize="10" guides="1" tooltips="1" connect="1" arrows="1" fold="1" page="1" pageScale="1" pageWidth="850" pageHeight="1100" math="0" shadow="0">
      <root>
        <mxCell id="0" />
        <mxCell id="1" parent="0" />
        <mxCell id="Tm7vxvQAEOXQAW3O7N0W-1" value="" style="rounded=0;whiteSpace=wrap;html=1;strokeColor=#6c8ebf;fillColor=#dae8fc;" vertex="1" parent="1">
          <mxGeometry x="200" y="280" width="160" height="80" as="geometry" />
        </mxCell>
        <mxCell id="Tm7vxvQAEOXQAW3O7N0W-4" value="" style="rounded=0;whiteSpace=wrap;html=1;fillColor=none;strokeWidth=2;" vertex="1" parent="1">
          <mxGeometry x="200" y="280" width="160" height="600" as="geometry" />
        </mxCell>
        <mxCell id="Tm7vxvQAEOXQAW3O7N0W-9" value="" style="group" vertex="1" connectable="0" parent="1">
          <mxGeometry x="763" y="280" width="183" height="601" as="geometry" />
        </mxCell>
        <mxCell id="Tm7vxvQAEOXQAW3O7N0W-10" value="" style="rounded=0;whiteSpace=wrap;html=1;strokeColor=#6c8ebf;fillColor=#dae8fc;" vertex="1" parent="Tm7vxvQAEOXQAW3O7N0W-9">
          <mxGeometry width="120" height="40" as="geometry" />
        </mxCell>
        <mxCell id="Tm7vxvQAEOXQAW3O7N0W-11" value="" style="rounded=0;whiteSpace=wrap;html=1;fillColor=none;strokeWidth=2;" vertex="1" parent="Tm7vxvQAEOXQAW3O7N0W-9">
          <mxGeometry width="120" height="240" as="geometry" />
        </mxCell>
        <mxCell id="Tm7vxvQAEOXQAW3O7N0W-12" value="&lt;b&gt;SAM Auth&lt;/b&gt;" style="text;html=1;align=center;verticalAlign=middle;whiteSpace=wrap;rounded=0;" vertex="1" parent="Tm7vxvQAEOXQAW3O7N0W-9">
          <mxGeometry x="30" y="5" width="60" height="30" as="geometry" />
        </mxCell>
        <mxCell id="Tm7vxvQAEOXQAW3O7N0W-53" value="" style="group;rotation=-90;" vertex="1" connectable="0" parent="Tm7vxvQAEOXQAW3O7N0W-9">
          <mxGeometry x="-13" y="300" width="170" height="50" as="geometry" />
        </mxCell>
        <mxCell id="Tm7vxvQAEOXQAW3O7N0W-13" style="edgeStyle=orthogonalEdgeStyle;rounded=0;orthogonalLoop=1;jettySize=auto;html=1;exitX=1;exitY=0.75;exitDx=0;exitDy=0;" edge="1" parent="Tm7vxvQAEOXQAW3O7N0W-53">
          <mxGeometry relative="1" as="geometry">
            <mxPoint x="60" y="100" as="sourcePoint" />
            <mxPoint x="60" y="-60" as="targetPoint" />
          </mxGeometry>
        </mxCell>
        <mxCell id="Tm7vxvQAEOXQAW3O7N0W-14" value="" style="endArrow=classic;html=1;rounded=0;entryX=1.013;entryY=0.084;entryDx=0;entryDy=0;entryPerimeter=0;dashed=1;" edge="1" parent="Tm7vxvQAEOXQAW3O7N0W-53">
          <mxGeometry width="50" height="50" relative="1" as="geometry">
            <mxPoint x="80" y="-60" as="sourcePoint" />
            <mxPoint x="80" y="98" as="targetPoint" />
          </mxGeometry>
        </mxCell>
        <mxCell id="Tm7vxvQAEOXQAW3O7N0W-15" value="&lt;b&gt;Tokens&lt;/b&gt;" style="text;html=1;align=center;verticalAlign=middle;whiteSpace=wrap;rounded=0;container=0;rotation=-90;" vertex="1" parent="Tm7vxvQAEOXQAW3O7N0W-53">
          <mxGeometry x="45" width="100" height="30" as="geometry" />
        </mxCell>
        <mxCell id="Tm7vxvQAEOXQAW3O7N0W-33" value="&lt;b&gt;Token Exchange Grant&lt;/b&gt;" style="text;html=1;align=center;verticalAlign=middle;whiteSpace=wrap;rounded=0;container=0;rotation=-90;" vertex="1" parent="Tm7vxvQAEOXQAW3O7N0W-9">
          <mxGeometry x="-38" y="309" width="140" height="30" as="geometry" />
        </mxCell>
        <mxCell id="Tm7vxvQAEOXQAW3O7N0W-6" value="" style="rounded=0;whiteSpace=wrap;html=1;strokeColor=#6c8ebf;fillColor=#dae8fc;" vertex="1" parent="Tm7vxvQAEOXQAW3O7N0W-9">
          <mxGeometry y="401" width="120" height="40" as="geometry" />
        </mxCell>
        <mxCell id="Tm7vxvQAEOXQAW3O7N0W-8" value="" style="rounded=0;whiteSpace=wrap;html=1;fillColor=none;strokeWidth=2;" vertex="1" parent="Tm7vxvQAEOXQAW3O7N0W-9">
          <mxGeometry y="401" width="120" height="199" as="geometry" />
        </mxCell>
        <mxCell id="Tm7vxvQAEOXQAW3O7N0W-29" value="&lt;b&gt;XRS Service&lt;/b&gt;" style="text;html=1;align=center;verticalAlign=middle;whiteSpace=wrap;rounded=0;" vertex="1" parent="Tm7vxvQAEOXQAW3O7N0W-9">
          <mxGeometry x="-10" y="406" width="140" height="30" as="geometry" />
        </mxCell>
        <mxCell id="Tm7vxvQAEOXQAW3O7N0W-16" value="" style="endArrow=classic;html=1;rounded=0;entryX=1.013;entryY=0.084;entryDx=0;entryDy=0;entryPerimeter=0;dashed=1;" edge="1" parent="1">
          <mxGeometry width="50" height="50" relative="1" as="geometry">
            <mxPoint x="760" y="336" as="sourcePoint" />
            <mxPoint x="361.11999999999995" y="336.1600000000001" as="targetPoint" />
          </mxGeometry>
        </mxCell>
        <mxCell id="Tm7vxvQAEOXQAW3O7N0W-17" value="&lt;b&gt;Login: Authorization Code Flow Grant&lt;/b&gt;" style="text;html=1;align=center;verticalAlign=middle;whiteSpace=wrap;rounded=0;" vertex="1" parent="1">
          <mxGeometry x="502" y="285" width="270" height="30" as="geometry" />
        </mxCell>
        <mxCell id="Tm7vxvQAEOXQAW3O7N0W-18" value="&lt;b&gt;Token&lt;/b&gt;" style="text;html=1;align=center;verticalAlign=middle;whiteSpace=wrap;rounded=0;" vertex="1" parent="1">
          <mxGeometry x="375" y="340" width="60" height="30" as="geometry" />
        </mxCell>
        <mxCell id="Tm7vxvQAEOXQAW3O7N0W-28" style="edgeStyle=orthogonalEdgeStyle;rounded=0;orthogonalLoop=1;jettySize=auto;html=1;exitX=1;exitY=0.75;exitDx=0;exitDy=0;" edge="1" parent="1">
          <mxGeometry relative="1" as="geometry">
            <mxPoint x="360" y="310.24" as="sourcePoint" />
            <mxPoint x="760" y="310" as="targetPoint" />
          </mxGeometry>
        </mxCell>
        <mxCell id="Tm7vxvQAEOXQAW3O7N0W-31" value="&lt;b&gt;Teamcenter X&amp;nbsp;&lt;/b&gt;&lt;b&gt;AW Client&lt;/b&gt;&lt;div&gt;&lt;b&gt;&lt;br&gt;&lt;/b&gt;&lt;/div&gt;&lt;div&gt;&lt;b&gt;(&lt;/b&gt;&lt;b style=&quot;background-color: initial;&quot;&gt;Web App&lt;/b&gt;&lt;b style=&quot;background-color: initial;&quot;&gt;)&lt;/b&gt;&lt;/div&gt;" style="text;html=1;align=center;verticalAlign=middle;whiteSpace=wrap;rounded=0;" vertex="1" parent="1">
          <mxGeometry x="195" y="292.5" width="170" height="55" as="geometry" />
        </mxCell>
        <mxCell id="Tm7vxvQAEOXQAW3O7N0W-54" value="" style="rounded=0;whiteSpace=wrap;html=1;strokeColor=#6c8ebf;fillColor=#dae8fc;" vertex="1" parent="1">
          <mxGeometry x="480" y="600" width="160" height="40" as="geometry" />
        </mxCell>
        <mxCell id="Tm7vxvQAEOXQAW3O7N0W-55" value="" style="rounded=0;whiteSpace=wrap;html=1;fillColor=none;strokeWidth=2;" vertex="1" parent="1">
          <mxGeometry x="480" y="600" width="160" height="280" as="geometry" />
        </mxCell>
        <mxCell id="Tm7vxvQAEOXQAW3O7N0W-56" value="&lt;b&gt;Vis Server&lt;/b&gt;" style="text;html=1;align=center;verticalAlign=middle;whiteSpace=wrap;rounded=0;" vertex="1" parent="1">
          <mxGeometry x="485" y="605" width="150" height="30" as="geometry" />
        </mxCell>
        <mxCell id="Tm7vxvQAEOXQAW3O7N0W-57" value="" style="endArrow=classic;html=1;rounded=0;entryX=1.013;entryY=0.084;entryDx=0;entryDy=0;entryPerimeter=0;dashed=1;" edge="1" parent="1">
          <mxGeometry width="50" height="50" relative="1" as="geometry">
            <mxPoint x="477.44" y="840" as="sourcePoint" />
            <mxPoint x="358.55999999999995" y="840.1600000000001" as="targetPoint" />
          </mxGeometry>
        </mxCell>
        <mxCell id="Tm7vxvQAEOXQAW3O7N0W-58" value="&lt;b&gt;Response&lt;/b&gt;" style="text;html=1;align=center;verticalAlign=middle;whiteSpace=wrap;rounded=0;" vertex="1" parent="1">
          <mxGeometry x="365" y="840" width="60" height="30" as="geometry" />
        </mxCell>
        <mxCell id="Tm7vxvQAEOXQAW3O7N0W-59" style="edgeStyle=orthogonalEdgeStyle;rounded=0;orthogonalLoop=1;jettySize=auto;html=1;exitX=1;exitY=0.75;exitDx=0;exitDy=0;" edge="1" parent="1">
          <mxGeometry relative="1" as="geometry">
            <mxPoint x="360" y="720.24" as="sourcePoint" />
            <mxPoint x="480" y="720" as="targetPoint" />
          </mxGeometry>
        </mxCell>
        <mxCell id="Tm7vxvQAEOXQAW3O7N0W-60" value="&lt;b&gt;EMM Request &lt;br&gt;&lt;br&gt;(Share to XR)&lt;/b&gt;" style="text;html=1;align=center;verticalAlign=middle;resizable=0;points=[];autosize=1;strokeColor=none;fillColor=none;" vertex="1" parent="1">
          <mxGeometry x="360" y="690" width="100" height="60" as="geometry" />
        </mxCell>
        <mxCell id="Tm7vxvQAEOXQAW3O7N0W-65" value="" style="endArrow=classic;html=1;rounded=0;entryX=1.013;entryY=0.084;entryDx=0;entryDy=0;entryPerimeter=0;dashed=1;" edge="1" parent="1">
          <mxGeometry width="50" height="50" relative="1" as="geometry">
            <mxPoint x="760" y="779" as="sourcePoint" />
            <mxPoint x="641.1199999999999" y="779.1600000000001" as="targetPoint" />
          </mxGeometry>
        </mxCell>
        <mxCell id="Tm7vxvQAEOXQAW3O7N0W-66" value="&lt;b&gt;Response&lt;/b&gt;" style="text;html=1;align=center;verticalAlign=middle;whiteSpace=wrap;rounded=0;" vertex="1" parent="1">
          <mxGeometry x="645" y="783" width="60" height="30" as="geometry" />
        </mxCell>
        <mxCell id="Tm7vxvQAEOXQAW3O7N0W-67" style="edgeStyle=orthogonalEdgeStyle;rounded=0;orthogonalLoop=1;jettySize=auto;html=1;exitX=1;exitY=0.75;exitDx=0;exitDy=0;" edge="1" parent="1">
          <mxGeometry relative="1" as="geometry">
            <mxPoint x="640" y="753.24" as="sourcePoint" />
            <mxPoint x="760" y="753" as="targetPoint" />
          </mxGeometry>
        </mxCell>
        <mxCell id="Tm7vxvQAEOXQAW3O7N0W-68" value="&lt;b&gt;UploadUSD&lt;/b&gt;" style="text;html=1;align=center;verticalAlign=middle;resizable=0;points=[];autosize=1;strokeColor=none;fillColor=none;" vertex="1" parent="1">
          <mxGeometry x="635" y="725" width="90" height="30" as="geometry" />
        </mxCell>
        <mxCell id="Tm7vxvQAEOXQAW3O7N0W-69" value="" style="rounded=0;whiteSpace=wrap;html=1;strokeColor=#6c8ebf;fillColor=#dae8fc;" vertex="1" parent="1">
          <mxGeometry x="520" y="682" width="120" height="40" as="geometry" />
        </mxCell>
        <mxCell id="Tm7vxvQAEOXQAW3O7N0W-70" value="" style="rounded=0;whiteSpace=wrap;html=1;fillColor=none;strokeWidth=2;" vertex="1" parent="1">
          <mxGeometry x="520" y="682" width="120" height="199" as="geometry" />
        </mxCell>
        <mxCell id="Tm7vxvQAEOXQAW3O7N0W-71" value="&lt;b&gt;JT2USD converter&lt;/b&gt;" style="text;html=1;align=center;verticalAlign=middle;whiteSpace=wrap;rounded=0;" vertex="1" parent="1">
          <mxGeometry x="510" y="687" width="140" height="30" as="geometry" />
        </mxCell>
      </root>
    </mxGraphModel>
  </diagram>
</mxfile>
